<svg width="335" height="337" viewBox="0 0 335 337" fill="none" xmlns="http://www.w3.org/2000/svg">
<path d="M318.246 337H156C152.686 337 150 334.314 150 331V197.695C150 192.628 155.894 189.842 159.809 193.059L322.055 326.364C326.407 329.94 323.879 337 318.246 337Z" fill="url(#paint0_linear_3_124)"/>
<path d="M0.5 330.496V198.348C0.5 194.902 3.39701 192.163 6.83816 192.358L112.556 198.326C117.486 198.604 119.988 204.385 116.817 208.17L11.0991 334.349C7.50021 338.645 0.5 336.1 0.5 330.496Z" fill="url(#paint1_linear_3_124)"/>
<path d="M111 0H6C2.68629 0 0 2.68629 0 6V66C0 69.3137 2.68629 72 6 72H111C114.314 72 117 69.3137 117 66V6C117 2.68629 114.314 0 111 0Z" fill="url(#paint2_linear_3_124)"/>
<path d="M0.5 211.322V56C0.5 52.6863 3.18629 50 6.5 50H111C114.314 50 117 52.6863 117 56V200.109C117 203.175 114.689 205.748 111.64 206.075L7.1401 217.288C3.59344 217.668 0.5 214.889 0.5 211.322Z" fill="url(#paint3_linear_3_124)"/>
<path d="M168.56 2.51004L114.905 77.5439C114.636 77.9204 114.411 78.3268 114.235 78.755L21.4957 304.63C18.9273 310.886 27.0604 315.949 31.5405 310.884L297.678 9.97501C301.103 6.10234 298.353 0 293.183 0H173.44C171.504 0 169.686 0.934745 168.56 2.51004Z" fill="url(#paint4_linear_3_124)"/>
<defs>
<linearGradient id="paint0_linear_3_124" x1="242.5" y1="155" x2="242.5" y2="337" gradientUnits="userSpaceOnUse">
<stop stop-color="#1AFFF2"/>
<stop offset="1" stop-color="#5C7DE9"/>
</linearGradient>
<linearGradient id="paint1_linear_3_124" x1="149.597" y1="0" x2="149.597" y2="336.508" gradientUnits="userSpaceOnUse">
<stop stop-color="#1AFFF2"/>
<stop offset="1" stop-color="#5C7DE9"/>
</linearGradient>
<linearGradient id="paint2_linear_3_124" x1="149.597" y1="0" x2="149.597" y2="336.508" gradientUnits="userSpaceOnUse">
<stop stop-color="#1AFFF2"/>
<stop offset="1" stop-color="#5C7DE9"/>
</linearGradient>
<linearGradient id="paint3_linear_3_124" x1="149.597" y1="0" x2="149.597" y2="336.508" gradientUnits="userSpaceOnUse">
<stop stop-color="#1AFFF2"/>
<stop offset="1" stop-color="#5C7DE9"/>
</linearGradient>
<linearGradient id="paint4_linear_3_124" x1="149.597" y1="0" x2="149.597" y2="336.508" gradientUnits="userSpaceOnUse">
<stop stop-color="#1AFFF2"/>
<stop offset="1" stop-color="#5C7DE9"/>
</linearGradient>
</defs>
</svg>
